<svg width="410" height="404" viewBox="0 0 410 404" fill="none" xmlns="http://www.w3.org/2000/svg">
<path d="M218.687 167.075C218.687 159.299 212.355 153.017 204.518 153.017C196.681 153.017 190.349 159.299 190.349 167.075V279.538C190.349 287.313 196.681 293.595 204.518 293.595C212.355 293.595 218.687 287.313 218.687 279.538V167.075ZM155.946 210.303C162.366 205.866 163.916 197.08 159.444 190.71C154.972 184.34 146.116 182.802 139.696 187.239C110.385 207.535 91.1687 241.318 91.1687 279.538C91.1687 341.655 141.91 392 204.518 392C267.126 392 317.867 341.655 317.867 279.538C317.867 241.318 298.651 207.535 269.295 187.239C262.875 182.802 254.064 184.34 249.548 190.71C245.031 197.08 246.625 205.822 253.045 210.303C275.095 225.591 289.485 250.895 289.485 279.538C289.485 326.104 251.407 363.884 204.474 363.884C157.54 363.884 119.506 326.104 119.506 279.538C119.506 250.895 133.896 225.547 155.946 210.303Z" fill="#39CE8E"/>
<path d="M204.469 40.1156C164.222 40.1156 127.782 55.9306 100.994 81.674C95.3708 87.0775 86.3825 86.9457 80.9807 81.3665C75.579 75.7873 75.6675 66.8694 81.2907 61.5098C113.126 30.8462 156.606 12 204.469 12C252.333 12 295.813 30.8462 327.692 61.5098C333.316 66.9133 333.448 75.8312 328.002 81.3665C322.556 86.9017 313.568 87.0775 307.989 81.674C281.157 55.9306 244.717 40.1156 204.469 40.1156ZM151.337 141.244C146.157 147.087 137.213 147.614 131.324 142.474C125.435 137.334 124.904 128.46 130.084 122.617C148.238 102.234 174.848 89.3179 204.469 89.3179C234.091 89.3179 260.701 102.234 278.855 122.617C284.035 128.46 283.46 137.334 277.615 142.474C271.771 147.614 262.782 147.043 257.602 141.244C244.584 126.615 225.634 117.434 204.469 117.434C183.305 117.434 164.354 126.615 151.337 141.244Z" fill="#39CE8E"/>
</svg>
