<svg width="726" height="759" viewBox="0 0 726 759" fill="none" xmlns="http://www.w3.org/2000/svg">
<path d="M574 247C587.3 247 598 257.7 598 271V311C633.3 311 662 339.7 662 375H702C715.3 375 726 385.7 726 399C726 412.3 715.3 423 702 423H662V479H702C715.3 479 726 489.7 726 503C726 516.3 715.3 527 702 527H662V583H702C715.3 583 726 593.7 726 607C726 620.3 715.3 631 702 631H662C662 666.3 633.3 695 598 695V735C598 748.3 587.3 759 574 759C560.7 759 550 748.3 550 735V695H494V735C494 748.3 483.3 759 470 759C456.7 759 446 748.3 446 735V695H390V735C390 748.3 379.3 759 366 759C352.7 759 342 748.3 342 735V695C306.7 695 278 666.3 278 631H238C224.7 631 214 620.3 214 607C214 598.271 218.609 590.661 225.537 586.462C235.553 587.479 245.716 588 256 588C285.9 588 314.77 583.595 342 575.401V599C342 616.7 356.3 631 374 631H566C583.7 631 598 616.7 598 599V407C598 389.3 583.7 375 566 375H541.701C549.703 348.064 554 319.534 554 290C554 279.952 553.502 270.021 552.53 260.229C556.463 252.37 564.579 247 574 247Z" fill="#3DC88B"/>
<path d="M288 32C288 14.3 273.7 0 256 0C238.3 0 224 14.3 224 32V288C224 305.7 238.3 320 256 320C273.7 320 288 305.7 288 288V32ZM146.3 130.4C160.8 120.3 164.3 100.3 154.2 85.8C144.1 71.3 124.1 67.8 109.6 77.9C43.4 124.1 0 201 0 288C0 429.4 114.6 544 256 544C397.4 544 512 429.4 512 288C512 201 468.6 124.1 402.3 77.9C387.8 67.8 367.9 71.3 357.7 85.8C347.5 100.3 351.1 120.2 365.6 130.4C415.4 165.2 447.9 222.8 447.9 288C447.9 394 361.9 480 255.9 480C149.9 480 64 394 64 288C64 222.8 96.5 165.1 146.3 130.4Z" fill="#3DC88B"/>
</svg>
